<?xml version="1.0" encoding="UTF-8" standalone="no"?>
<!DOCTYPE svg PUBLIC "-//W3C//DTD SVG 1.1//EN" "http://www.w3.org/Graphics/SVG/1.1/DTD/svg11.dtd">
<svg version="1.1" xmlns="http://www.w3.org/2000/svg" xmlns:xlink="http://www.w3.org/1999/xlink" preserveAspectRatio="xMidYMid meet" viewBox="0 0 640 640" width="640" height="640"><defs><path d="M528.99 102.23C737.63 101.2 605.29 123.69 471.76 133.23C468.37 133.47 419.3 142.77 389.5 158.27C320.16 194.32 226.09 422.39 283.39 477.78C319.16 512.36 394.89 492.9 430.9 423.97C468.18 352.6 440.76 461.09 383.54 512.36C359.07 534.27 310.94 548.57 277.89 543.36C224.97 535.01 124.52 472.76 217.82 298.95C304.85 136.81 173.52 233.38 139.94 268.15C117.27 291.62 109.34 302.91 81.9 351.41C51.6 404.97 98.59 157.07 289.35 126.08C385.3 110.48 408.6 102.83 528.99 102.23Z" id="bhXO5ixNC"></path><path d="M352.9 72.9C348.34 60.2 368.25 41.42 397.37 30.96C426.5 20.49 453.81 22.31 458.37 35.01C462.93 47.72 443.02 66.5 413.9 76.96C384.77 87.42 357.46 85.61 352.9 72.9Z" id="b97vWxORv"></path><path d="M488.29 388.37C501.8 350.22 499.03 400.29 492.63 423.98C426.29 669.73 206.68 655.39 92.47 564.02C-66.49 436.85 -28.34 139.59 268.12 80.77C313.01 71.87 316.21 78.63 299.12 90.31C-264.4 284.24 299.52 879.56 488.29 388.37Z" id="a2Hd8SjOk0"></path></defs><g><g><g><g><use xlink:href="#bhXO5ixNC" opacity="1" fill="#ffffff" fill-opacity="1"></use><g><use xlink:href="#bhXO5ixNC" opacity="1" fill-opacity="0" stroke="#000000" stroke-width="1" stroke-opacity="0"></use></g></g><g><use xlink:href="#b97vWxORv" opacity="1" fill="#ffffff" fill-opacity="1"></use><g><use xlink:href="#b97vWxORv" opacity="1" fill-opacity="0" stroke="#000000" stroke-width="1" stroke-opacity="0"></use></g></g><g><use xlink:href="#a2Hd8SjOk0" opacity="1" fill="#ffffff" fill-opacity="1"></use><g><use xlink:href="#a2Hd8SjOk0" opacity="1" fill-opacity="0" stroke="#000000" stroke-width="1" stroke-opacity="0"></use></g></g></g></g></g></svg>