<?xml version="1.0" encoding="utf-8"?>
<!-- Generator: Adobe Illustrator 16.0.0, SVG Export Plug-In . SVG Version: 6.00 Build 0)  -->
<!DOCTYPE svg PUBLIC "-//W3C//DTD SVG 1.1//EN" "http://www.w3.org/Graphics/SVG/1.1/DTD/svg11.dtd">
<svg version="1.1" id="Camada_1" xmlns="http://www.w3.org/2000/svg" xmlns:xlink="http://www.w3.org/1999/xlink" x="0px" y="0px"
	 width="405px" height="287px" viewBox="0 0 405 287" enable-background="new 0 0 405 287" xml:space="preserve">
<g>
	<path fill="#FFFFFF" d="M134,60c40.241-6.539,50.012-9.75,100.5-10c87.5-0.433,32,9-24,13c-1.42,0.102-22,4-34.5,10.5
		c-29.079,15.121-68.532,110.769-44.5,134c15,14.5,46.76,6.338,61.863-22.57C209,155,197.5,200.5,173.5,222
		c-10.26,9.191-30.447,15.186-44.308,13C107,231.5,64.873,205.395,104,132.5c36.5-68-18.578-27.498-32.66-12.917
		C61.831,129.428,58.508,134.161,47,154.5C34.29,176.965,54,73,134,60z"/>
	
		<ellipse transform="matrix(-0.9411 0.3381 -0.3381 -0.9411 367.2235 -4.4582)" fill="#FFFFFF" cx="184" cy="29.75" rx="23.5" ry="10.25"/>
	<path fill="#FFFFFF" d="M139.333,45C-97,126.333,139.5,376,218.666,170.001c5.668-16,4.503,4.998,1.82,14.935
		c-27.82,103.064-119.923,97.048-167.82,58.73C-14,190.334,2,65.667,126.333,41.001C145.156,37.268,146.5,40.1,139.333,45z"/>
	<text transform="matrix(1 0 0 1 213.4014 108.5)"><tspan x="0" y="0" fill="#FFFFFF" font-family="'SegoePrint'" font-size="36">Control   </tspan><tspan x="63.018" y="43.2" fill="#FFFFFF" font-family="'SegoePrint'" font-size="36">Team</tspan></text>
</g>
</svg>
